<?xml version="1.0" encoding="UTF-8"?>
<svg width="125px" height="125px" viewBox="0 0 125 125" version="1.1" xmlns="http://www.w3.org/2000/svg">
    <title>Group 2</title>
    <g id="favicon" stroke="none" stroke-width="1" fill="none" fill-rule="evenodd">
        <g id="Artboard" transform="translate(-269.000000, -169.000000)">
            <g id="Group-2" transform="translate(269.000000, 169.000000)">
                <circle id="Oval" fill="#00BF85" cx="62.5" cy="62.5" r="62.5"></circle>
                <g id="Group" transform="translate(25.000000, 37.000000)" fill="#FFFFFF" fill-rule="nonzero">
                    <circle id="Oval" cx="14.5" cy="37.5" r="11.5"></circle>
                    <circle id="Oval" cx="63.5" cy="37.5" r="11.5"></circle>
                    <path d="M11.33346,2.84217094e-14 C17.6298266,2.84217094e-14 23.9261932,2.84217094e-14 30.2225599,2.84217094e-14 C34.7400545,2.84217094e-14 35.9908471,12.5790828 49.5539836,21.8135209 C52.6185561,23.9000299 57.6764001,26.8619522 64.7275164,30.6992884 C65.9061993,31.3406218 66.3448669,32.8219539 65.7073601,34.0078393 C65.4228993,34.5369909 64.954263,34.9418261 64.3913611,35.1446749 L59.2428645,37 C48.8525898,27.5376257 39.1791549,22.8064387 30.2225599,22.8064387 C23.9261932,22.8064387 17.6298266,22.8064387 11.33346,22.8064387 C5.07416286,22.8064387 0,17.7010433 0,11.4032194 C0,5.1053954 5.07416286,2.84217094e-14 11.33346,2.84217094e-14 Z" id="Rectangle"></path>
                </g>
            </g>
        </g>
    </g>
</svg>