<?xml version="1.0" encoding="UTF-8"?>
<svg width="538px" height="468px" viewBox="0 0 538 468" version="1.1" xmlns="http://www.w3.org/2000/svg">
    <title>undraw_Credit_card_payments_re_qboh</title>
    <g id="Page-1" stroke="none" stroke-width="1" fill="none" fill-rule="evenodd">
        <g id="undraw_Credit_card_payments_re_qboh" transform="translate(269.000000, 234.000000) scale(-1, 1) translate(-269.000000, -234.000000) " fill-rule="nonzero">
            <path d="M535.86735,467.33261 L537.86735,467.29355 C537.093837,445.056158 534.721173,422.90325 530.76774,401.00644 C522.11931,354.12558 507.73845,323.33651 488.02458,309.49472 L486.87614,311.13144 C532.9279,343.46542 535.84392,466.09726 535.86735,467.33261 Z" id="Path" fill="#F2F2F2"></path>
            <path d="M510.86735,466.85409 L512.86735,466.81503 C512.82435,464.60019 511.57435,412.40097 491.02458,397.97323 L489.87614,399.60995 C509.59685,413.45566 510.85759,466.32187 510.86735,466.85409 Z" id="Path" fill="#F2F2F2"></path>
            <circle id="Oval" fill="#00BF85" cx="475.49821" cy="301.31307" r="10.00001"></circle>
            <circle id="Oval" fill="#00BF85" cx="480.45036" cy="387.31309" r="10"></circle>
            <path d="M515.52858,317.30764 C513.64923,329.31164 518.54748,340.04825 518.54748,340.04825 C518.54748,340.04825 526.49278,331.32242 528.37213,319.31839 C530.25148,307.31436 525.35322,296.57779 525.35322,296.57779 C525.35322,296.57779 517.40794,305.30362 515.52858,317.30764 Z" id="Path" fill="#F2F2F2"></path>
            <path d="M482.84141,346.46145 C494.33441,350.40365 505.76019,347.45108 505.76019,347.45108 C505.76019,347.45108 498.55226,338.10696 487.05931,334.16476 C475.56636,330.22256 464.14052,333.17514 464.14052,333.17514 C464.14052,333.17514 471.34846,342.51925 482.84141,346.46145 Z" id="Path" fill="#F2F2F2"></path>
            <path d="M482.47217,422.62259 C487.673804,424.256377 493.213274,424.495574 498.53638,423.31625 C491.632156,414.525982 480.210475,410.608231 469.36438,413.30996 C472.842868,417.50833 477.36287,420.719635 482.47217,422.62259 L482.47217,422.62259 Z" id="Path" fill="#F2F2F2"></path>
            <path d="M184.62381,121.67152 C184.62381,121.67152 162.97312,97.8283 149.37598,87.0587 C135.77884,76.2891 131.59328,84.20079 131.59328,84.20079 L125.87753,93.72715 L139.69077,112.93889 L177.00267,144.53495 L243.67242,170.64845 C246.572532,175.396903 252.656835,177.084784 257.588786,174.509068 C262.520738,171.933352 264.612152,165.975696 262.372389,160.882375 C260.132627,155.789054 254.328348,153.30349 249.09651,155.19725 L184.62381,121.67152 Z" id="Path" fill="#F8DADF"></path>
            <path d="M81.397,126.20182 L77.57992,102.84957 L66.80192,100.15512 C66.80192,100.15512 58.24812,97.52035 56.24875,114.75024 C54.24938,131.98013 55.79949,164.14918 55.79949,164.14918 L33.91667,233.44453 C28.8535565,235.799593 26.4871118,241.6798 28.5074374,246.885539 C30.527763,252.091279 36.2413703,254.835651 41.5676333,253.158641 C46.8938963,251.481631 50.0045443,245.958882 48.67797,240.53471 L77.35557,174.9271 L81.397,126.20182 Z" id="Path" fill="#F8DADF"></path>
            <polygon id="Path" fill="#F8DADF" points="170.545 453.915 184.648 453.914 191.358 399.515 170.542 399.516"></polygon>
            <path d="M166.94728,449.31032 L194.72238,449.30919 L194.7235,449.30919 C204.498871,449.30972 212.423285,457.234009 212.42397,467.00938 L212.42397,467.58457 L166.94813,467.58626 L166.94728,449.31032 Z" id="Path" fill="#596A7A"></path>
            <polygon id="Path" fill="#F8DADF" points="16.716 453.915 30.82 453.914 37.529 399.515 16.714 399.516"></polygon>
            <path d="M13.11879,449.31032 L40.89389,449.30919 C50.6703791,449.30972 58.5947908,457.234011 58.59547,467.00938 L58.59547,467.58457 L13.11963,467.58626 L13.11879,449.31032 Z" id="Path" fill="#596A7A"></path>
            <path d="M86.34302,79.55375 L62.9503,99.5231 L82.14815,160.2758 L86.47988,173.84194 C86.47988,173.84194 60.02976,198.22908 43.66403,266.35404 C27.2983,334.479 0.52577,425.00067 0.52577,425.00067 L57.0379,441.17752 L103.01421,287.07176 L157.09329,407.97241 L163.33699,443.73176 L211.46254,429.54154 L200.11036,339.85937 L143.34949,184.61837 L149.24561,143.46673 C149.24561,143.46673 158.09974,122.92639 142.71811,101.17989 L137.89344,80.74597 L120.61008,76.48891 L86.34302,79.55375 Z" id="Path" fill="#596A7A"></path>
            <path d="M125.20544,68.69768 L61.95996,68.69768 C59.2511598,68.6946379 57.0560021,66.4994802 57.05296,63.79068 L57.05296,36.52968 C57.05296,16.3548727 73.4078727,-4e-05 93.58268,-4e-05 C113.757487,-4e-05 130.1124,16.3548727 130.1124,36.52968 L130.1124,63.79068 C130.109358,66.4994646 127.914225,68.6946159 125.20544,68.69768 Z" id="Path" fill="#CCCCCC"></path>
            <circle id="Oval" fill="#F8DADF" transform="translate(101.089167, 41.280742) rotate(-61.336800) translate(-101.089167, -41.280742) " cx="101.089167" cy="41.2807419" r="26.78231"></circle>
            <path d="M138.75447,39.25582 L100.08141,39.25582 L99.68474,33.70352 L97.70193,39.25582 L91.74711,39.25582 L90.96122,28.25133 L87.03128,39.25582 L75.50898,39.25582 L75.50898,38.7106 C75.5268684,22.7589418 88.4537019,9.83198747 104.40536,9.81395 L109.85782,9.81395 C125.809533,9.83195969 138.73646,22.7588867 138.75447,38.7106 L138.75447,39.25582 Z" id="Path" fill="#CCCCCC"></path>
            <path d="M99.7649,73.78649 C99.4737525,73.78649 99.1831836,73.7605518 98.89649,73.70982 L70.57834,68.71339 L70.57834,21.91182 L101.75117,21.91182 L100.9794,22.81165 C90.24166,35.33465 98.3313,55.6409 104.10909,66.63048 C104.978176,68.2730265 104.828837,70.2683422 103.72493,71.76322 C102.805965,73.0339066 101.333065,73.78649 99.7649,73.78649 Z" id="Path" fill="#CCCCCC"></path>
            <path d="M333.95385,319.14568 L85.77276,406.89242 C72.9962419,411.39345 58.9873327,404.702991 54.45746,391.93667 L11.82346,271.35151 C7.32243506,258.574995 14.0128874,244.566091 26.7792,240.03621 L274.96029,152.28947 C287.736811,147.788439 301.745723,154.478898 306.2756,167.24522 L348.9096,287.83038 C353.410624,300.606898 346.720167,314.615803 333.95385,319.14568 L333.95385,319.14568 Z" id="Path" fill="#FFFFFF"></path>
            <path d="M348.9096,287.83038 L349.13516,288.46838 C353.447409,300.671463 347.050732,314.0598 334.84771,318.37222 L85.42571,406.55769 C73.2253302,410.869829 59.8390635,404.476673 55.5245,392.27715 L55.29894,391.63915 L348.9096,287.83038 Z" id="Path" fill="#F2F2F2"></path>
            <path d="M70.28494,268.03362 C53.83426,278.85825 32.75049,270.71185 25.37682,258.84597 L26.55242,258.17797 C40.55744,249.44838 61.35596,254.31204 70.28494,268.03362 Z" id="Path" fill="#00BF85"></path>
            <path d="M276.43557,298.7448 C272.409,300.16843 268.78357,300.10312 265.65864,298.55067 C258.59597,295.0415 255.28183,284.63633 252.61883,276.27542 C251.84399,273.84317 251.11218,271.54552 250.36697,269.66776 L250.3563,269.63921 C247.657921,261.886131 251.705251,253.405985 259.43001,250.62757 L292.81228,238.82495 C296.83371,237.40314 300.45528,237.46789 303.57759,239.01781 C310.63851,242.52259 313.9554,252.92409 316.62076,261.28181 C317.39792,263.71901 318.13199,266.02125 318.8799,267.90191 C321.593584,275.663019 317.545995,284.161103 309.80979,286.94499 L276.43557,298.7448 Z M251.75493,269.13352 C252.51722,271.05646 253.25493,273.37242 254.03574,275.82414 C256.61357,283.91746 259.82185,293.98999 266.32035,297.21876 C269.10962,298.6045 272.25627,298.64501 275.93966,297.34276 L309.31199,285.54366 C316.269405,283.042302 319.91579,275.405623 317.48704,268.42253 C316.73075,266.52253 315.98904,264.1964 315.20374,261.73353 C312.62374,253.64329 309.41287,243.57439 302.91628,240.34993 C300.12982,238.96666 296.98639,238.92656 293.30814,240.22704 L259.9278,252.02897 C252.9786,254.529725 249.334686,262.155872 251.75493,269.13352 L251.75493,269.13352 Z" id="Shape" fill="#3F3D56"></path>
            <path d="M63.36595,271.93132 C57.4999366,273.965395 51.1808789,274.312747 45.12726,272.93388 C36.2866,270.99263 28.26335,265.71419 24.18894,259.15938 L23.78055,258.50238 L25.61539,257.4593 C39.8311,248.60478 61.14805,253.40511 70.34933,267.54175 L70.75277,268.16163 L70.13501,268.56837 C68.0231843,269.959365 65.7501763,271.088622 63.36595,271.93132 L63.36595,271.93132 Z M25.87255,259.02398 C29.86002,264.94867 37.27999,269.68789 45.44628,271.4813 C53.3844781,273.335408 61.7335311,271.988063 68.68553,267.73102 C59.68496,254.71188 39.74402,250.39322 26.38969,258.7295 L25.87255,259.02398 Z" id="Shape" fill="#3F3D56"></path>
            <path d="M72.08509,358.47976 C67.8381589,360.16081 63.0100665,359.359085 59.53437,356.39566 C55.4741405,352.847146 53.559554,347.437337 54.48376,342.12478 C55.3444946,337.541561 58.7064541,333.830194 63.18253,332.52195 L107.66145,316.79601 C111.965331,315.012201 116.905749,315.789581 120.45385,318.80891 C124.511745,322.358776 126.423816,327.768394 125.498,333.07979 C124.61969,337.66971 121.52086,341.05099 116.79736,342.66942 L72.31761,358.39565 C72.24001,358.424237 72.1625033,358.452273 72.08509,358.47976 Z M63.45918,333.99964 C59.5915836,335.193591 56.700356,338.427006 55.94466,342.40353 C55.1120804,347.1896 56.8370007,352.06326 60.49492,355.26002 C63.638931,357.923952 68.0130502,358.595417 71.81134,356.99719 L116.31218,341.26351 C120.274523,340.120667 123.259786,336.850115 124.03724,332.8002 C124.871482,328.015096 123.14869,323.141455 119.49256,319.94366 C116.344341,317.282462 111.971492,316.607157 108.16714,318.19466 L63.66355,333.92932 C63.59524,333.95232 63.5267,333.97577 63.45916,333.99966 L63.45918,333.99964 Z" id="Shape" fill="#3F3D56"></path>
            <path d="M276.73306,263.26572 L262.71153,268.22317 C260.775559,268.907652 258.651262,267.893121 257.96678,265.95715 C257.282298,264.021179 258.296829,261.896882 260.2328,261.2124 L274.25433,256.25496 C275.506682,255.812177 276.900124,256.071151 277.909761,256.934328 C278.919398,257.797505 279.391841,259.133749 279.149126,260.439708 C278.906411,261.745668 277.985412,262.822938 276.73306,263.26572 L276.73306,263.26572 Z" id="Path" fill="#00BF85"></path>
            <path d="M280.69901,274.48295 L266.67748,279.44039 C264.741512,280.12487 262.61722,279.110338 261.93274,277.17437 C261.24826,275.238402 262.262792,273.11411 264.19876,272.42963 L278.22029,267.47218 C280.156261,266.787701 282.280555,267.802235 282.965034,269.738205 C283.649514,271.674176 282.63498,273.79847 280.69901,274.48295 L280.69901,274.48295 Z" id="Path" fill="#00BF85"></path>
            <path d="M284.66496,285.70017 L270.64343,290.65762 C269.391077,291.100401 267.997634,290.841424 266.987998,289.978245 C265.978362,289.115065 265.50592,287.77882 265.748638,286.47286 C265.991355,285.1669 266.912357,284.089631 268.16471,283.64685 L282.18624,278.68941 C284.122208,278.00493 286.2465,279.019462 286.93098,280.95543 C287.61546,282.891398 286.600928,285.01569 284.66496,285.70017 L284.66496,285.70017 Z" id="Path" fill="#00BF85"></path>
            <path d="M301.27071,254.5902 L287.24918,259.54764 C285.996828,259.990421 284.603387,259.731446 283.593752,258.868268 C282.584116,258.005089 282.111675,256.668846 282.354391,255.362887 C282.597108,254.056928 283.518108,252.979661 284.77046,252.53688 L298.79199,247.57944 C300.044342,247.136659 301.437783,247.395635 302.447418,248.258813 C303.457053,249.121991 303.929495,250.458234 303.686778,251.764193 C303.444062,253.070151 302.523062,254.147419 301.27071,254.5902 L301.27071,254.5902 Z" id="Path" fill="#00BF85"></path>
            <path d="M305.23671,265.80742 L291.21518,270.76487 C289.962827,271.207651 288.569384,270.948674 287.559748,270.085495 C286.550112,269.222315 286.07767,267.88607 286.320388,266.58011 C286.563105,265.27415 287.484107,264.196881 288.73646,263.7541 L302.75799,258.79666 C304.693958,258.11218 306.81825,259.126712 307.50273,261.06268 C308.18721,262.998648 307.172678,265.12294 305.23671,265.80742 L305.23671,265.80742 Z" id="Path" fill="#00BF85"></path>
            <path d="M309.20264,277.02465 L295.18111,281.98209 C293.245142,282.66657 291.12085,281.652038 290.43637,279.71607 C289.75189,277.780102 290.766422,275.65581 292.70239,274.97133 L306.72392,270.01388 C307.976273,269.571099 309.369716,269.830076 310.379352,270.693255 C311.388988,271.556435 311.86143,272.89268 311.618712,274.19864 C311.375995,275.5046 310.454993,276.581869 309.20264,277.02465 L309.20264,277.02465 Z" id="Path" fill="#00BF85"></path>
            <rect id="Rectangle" fill="#3F3D56" transform="translate(169.000824, 246.100121) rotate(-19.471562) translate(-169.000824, -246.100121) " x="13.2894572" y="245.356514" width="311.422733" height="1.48721465"></rect>
            <path d="M333.95385,319.14568 L85.77276,406.89242 C72.9962419,411.39345 58.9873327,404.702991 54.45746,391.93667 L11.82346,271.35151 C7.32243506,258.574995 14.0128874,244.566091 26.7792,240.03621 L274.96029,152.28947 C287.736811,147.788439 301.745723,154.478898 306.2756,167.24522 L348.9096,287.83038 C353.410624,300.606898 346.720167,314.615803 333.95385,319.14568 L333.95385,319.14568 Z M27.27494,241.43832 C15.2823974,245.693727 8.99745185,258.85355 13.2256,270.85573 L55.8596,391.44089 C60.1150114,403.433429 73.2748325,409.718369 85.27701,405.49022 L333.45811,317.74353 C345.450673,313.488145 351.735625,300.328299 347.50744,288.32612 L304.87344,167.74096 C300.618033,155.748417 287.45821,149.463472 275.45603,153.69162 L27.27494,241.43832 Z" id="Shape" fill="#3F3D56"></path>
        </g>
    </g>
</svg>